<svg xmlns="http://www.w3.org/2000/svg" viewBox="0 0 290.29 290.29"><defs><style>.cls-1{fill:#fff;}</style></defs><g id="Layer_2" data-name="Layer 2"><g id="a"><path class="cls-1" d="M222.1,92.5a18,18,0,0,0-32.68-15.25L181.8,93.59l16.34,7.62a18,18,0,0,0,24-8.72ZM84.36,188.25A18,18,0,1,0,100.64,214l.37-.78a18,18,0,0,0-16.65-24.93ZM236.26,0H54A54,54,0,0,0,0,54V236.26a54,54,0,0,0,54,54H236.26a54,54,0,0,0,54-54V54a54,54,0,0,0-54-54Zm-30.5,247a40.75,40.75,0,0,1-40.7-40.7v-18H137.65l-16.89,36.21,0,0a40.68,40.68,0,1,1-36.37-58.86h18v-40h-18a40.7,40.7,0,1,1,40.7-40.7v80.71h1.62l4.22-16.49,38-81.42a40.7,40.7,0,1,1,19.68,54.09l-16.34-7.62-24,51.44h57.53a40.7,40.7,0,1,1,0,81.4ZM84.36,66.84a18,18,0,0,0,0,36.06h18v-18A18.05,18.05,0,0,0,84.36,66.84Zm121.4,121.41h-18v18a18,18,0,1,0,18-18Z"/></g></g></svg>