<?xml version="1.0" encoding="UTF-8"?><svg id="a" xmlns="http://www.w3.org/2000/svg" viewBox="0 0 1024 256"><defs><style>.b{fill:#fff;}</style></defs><path class="b" d="m178.918,93.54c2.75-5.898.192-12.934-5.707-15.682-2.858-1.335-6.06-1.472-9.023-.394-2.962,1.077-5.327,3.243-6.658,6.101l-4.989,10.695,10.695,4.987c5.9,2.757,12.934.192,15.682-5.706Zm-90.155,62.671c-6.508,0-11.802,5.294-11.802,11.802s5.294,11.802,11.802,11.802c4.706,0,8.765-2.776,10.658-6.771l.239-.512c.58-1.393.903-2.919.903-4.519,0-6.507-5.294-11.802-11.8-11.802Zm99.423-123.211h-119.276c-19.53,0-35.362,15.832-35.362,35.362v119.276c0,19.53,15.832,35.362,35.362,35.362h119.276c19.53,0,35.362-15.832,35.362-35.362v-119.276c0-19.53-15.832-35.362-35.362-35.362Zm-19.961,161.652c-14.689,0-26.639-11.95-26.639-26.639v-11.802h-17.939l-11.055,23.703-.025-.012c-4.378,8.73-13.389,14.749-23.802,14.749-14.689,0-26.639-11.95-26.639-26.639s11.95-26.639,26.639-26.639h11.8v-26.184h-11.8c-14.689,0-26.639-11.95-26.639-26.639s11.95-26.637,26.639-26.637,26.637,11.948,26.637,26.637v52.823h1.063l2.763-10.793,24.854-53.288c3.009-6.45,8.347-11.343,15.033-13.774,6.69-2.436,13.923-2.115,20.37.889,13.313,6.209,19.093,22.09,12.885,35.403-6.211,13.315-22.094,19.089-35.403,12.885l-10.695-4.988-15.703,33.667h37.658c14.689,0,26.637,11.95,26.637,26.639s-11.948,26.639-26.637,26.639Zm-79.462-117.9c-6.508,0-11.802,5.294-11.802,11.8s5.294,11.802,11.802,11.802h11.8v-11.802c0-6.506-5.294-11.8-11.8-11.8Zm79.462,79.46h-11.802v11.802c0,6.508,5.294,11.802,11.802,11.802s11.8-5.294,11.8-11.802-5.294-11.802-11.8-11.802Z"/><g><path class="b" d="m339.608,91.523h-14.312c-3.473,0-8.056,1.392-10.494,3.866l-21.43,21.738v-25.604h-16.697v68.748h16.697v-24.46l5.096-4.881,18.41,24.219c2.454,3.228,7.53,5.123,11.584,5.123h13.012l-32.1-39.788,30.235-28.96Z"/><rect class="b" x="405.434" y="108.121" width="15.716" height="52.15"/><path class="b" d="m477.664,108.121c-3.503,0-6.858,1.417-9.301,3.929l-14.153,14.552v-29.288c0-8.677-7.034-15.711-15.711-15.711h-.003v78.669h15.714v-15.872l4.279-4.011,11.47,14.842c2.457,3.179,6.248,5.04,10.266,5.04h12.191l-23.579-29.585,24.068-22.565h-15.241Z"/><path class="b" d="m540.047,108.121c-3.503,0-6.858,1.417-9.301,3.929l-14.156,14.554v-29.291c0-8.677-7.034-15.711-15.711-15.711v78.669h15.711v-15.872l4.278-4.011,11.47,14.842c2.457,3.179,6.248,5.04,10.266,5.04h12.194l-23.58-29.585,24.07-22.566h-15.241Z"/><path class="b" d="m626.176,81.602v78.669h15.714v-62.956c0-8.678-7.035-15.714-15.714-15.714Z"/><path class="b" d="m757.488,135.422c-1.31-1.439-3.079-2.684-5.304-3.73s-4.878-1.997-7.954-2.848c-2.491-.72-4.452-1.328-5.892-1.817-1.442-.492-2.491-.935-3.145-1.328-.656-.393-1.163-.882-1.523-1.472-.36-.588-.537-1.211-.537-1.865s.127-1.229.39-1.721c.261-.489.654-.915,1.181-1.275.522-.36,1.161-.623,1.913-.786.753-.165,1.619-.246,2.602-.246,1.31,0,2.752.261,4.323.786s3.092,1.226,4.566,2.111c.015.009.03.018.044.027,2.45,1.479,5.576,1.131,7.482-1.002l4.7-5.261c-1.766-1.637-3.781-3.046-6.039-4.224-2.26-1.178-4.698-2.093-7.318-2.749-2.62-.654-5.37-.983-8.251-.983-2.686,0-5.286.378-7.807,1.13-2.521.755-4.746,1.852-6.677,3.292-1.933,1.439-3.472,3.142-4.617,5.106-1.145,1.964-1.718,4.158-1.718,6.581,0,2.096.36,3.976,1.079,5.646s1.733,3.193,3.046,4.569c1.439,1.439,3.289,2.699,5.55,3.781,2.258,1.079,4.926,2.012,8.002,2.798,2.162.59,3.928,1.115,5.304,1.571,1.376.461,2.359.854,2.947,1.181,1.178.72,1.769,1.736,1.769,3.043,0,.656-.132,1.229-.395,1.718-.261.492-.639.917-1.128,1.277-.492.362-1.097.639-1.817.836-.722.195-1.541.294-2.455.294-2.293,0-4.716-.474-7.27-1.424-1.248-.463-2.434-1.057-3.557-1.78-2.175-1.399-5-1.231-6.955.462l-5.888,5.098c2.291,2.749,5.385,4.944,9.282,6.581,3.895,1.634,8.395,2.455,13.504,2.455,4.189,0,7.921-.737,11.195-2.21,3.274-1.475,5.843-3.502,7.711-6.089s2.8-5.55,2.8-8.889c0-1.7-.264-3.289-.786-4.764-.527-1.472-1.313-2.765-2.359-3.88Z"/><path class="b" d="m811.385,108.121c-3.503,0-6.858,1.417-9.301,3.929l-14.155,14.554v-29.291c0-8.677-7.034-15.711-15.711-15.711v78.669h15.711v-15.872l4.278-4.011,11.47,14.842c2.457,3.179,6.248,5.04,10.267,5.04h12.194l-23.58-29.585,24.072-22.566h-15.243Z"/><path class="b" d="m412.007,81.602c-5.035,0-9.136,4.101-9.136,9.143s4.101,9.143,9.136,9.143h9.143v-9.143c0-5.041-4.101-9.143-9.143-9.143Z"/><path class="b" d="m974.672,82.147c-5.043,0-9.143,4.101-9.143,9.143v9.143h9.143c5.034,0,9.135-4.101,9.135-9.143s-4.101-9.143-9.135-9.143Z"/><path class="b" d="m585.041,107.144c-16.107,0-26.543,10.435-26.543,26.564s10.436,26.563,26.543,26.563h26.564v-26.563c0-16.129-10.434-26.564-26.564-26.564Zm11.775,38.319h-11.775c-6.486,0-11.755-5.27-11.755-11.755s5.269-11.775,11.755-11.775,11.775,5.289,11.775,11.775v11.755Z"/><path class="b" d="m679.681,107.144c-16.107,0-26.543,10.435-26.543,26.564s10.436,26.563,26.543,26.563h26.564v-26.563c0-16.129-10.435-26.564-26.564-26.564Zm11.775,38.319h-11.775c-6.486,0-11.755-5.27-11.755-11.755s5.268-11.775,11.755-11.775,11.775,5.289,11.775,11.775v11.755Z"/><path class="b" d="m869.441,108.121v37.343h-9.18c-6.486,0-11.755-5.27-11.755-11.755l.286-25.587h-15.074v25.587c0,14.671,11.893,26.563,26.564,26.563h23.948v-37.362c0-8.167-6.621-14.789-14.788-14.789Z"/><path class="b" d="m905.884,141.982c-5.048,0-9.142,4.093-9.142,9.142s4.093,9.142,9.142,9.142,9.142-4.093,9.142-9.142-4.093-9.142-9.142-9.142Z"/><path class="b" d="m943.307,107.287c0-3.785,3.069-6.854,6.855-6.854h6.207v-13.034h-9.956c-10.443,0-18.908,8.466-18.908,18.908v3.286h-7.575v12.964h7.575v37.706h15.802v-37.706h20.426v37.714c8.68,0,15.716-7.036,15.716-15.716v-34.962h-36.142v-2.306Z"/><path class="b" d="m373.663,145.533h0l9.693-9.693,6.822-6.822c3.37-3.37,3.802-8.782.829-12.507-4.863-6.092-12.557-9.234-20.387-9.234-17.834,0-27.229,11.342-27.229,26.568,0,14.202,10.44,26.55,26.55,26.55h7.302c4.073,0,7.78-1.651,10.459-4.33,2.476-2.476,4.06-5.862,4.284-9.617h-19.238l.915-.915Zm-13.087-4.887c-1.414-1.509-2.195-4.03-2.342-5.645-.679-6.991,4.844-12.954,11.706-12.918,2.055,0,4.965.604,6.992,2.207l-16.356,16.356Z"/></g></svg>