<?xml version="1.0" encoding="UTF-8"?><svg id="a" xmlns="http://www.w3.org/2000/svg" viewBox="0 0 1024 512"><path d="m588.957,128.438c4.202-9.011.293-19.761-8.719-23.96-4.367-2.04-9.259-2.249-13.786-.603-4.525,1.645-8.139,4.955-10.173,9.321l-7.622,16.34,16.34,7.619c9.015,4.212,19.761.293,23.96-8.718Zm-137.742,95.751c-9.943,0-18.031,8.089-18.031,18.031s8.088,18.031,18.031,18.031c7.189,0,13.391-4.241,16.283-10.344l.365-.782c.885-2.128,1.379-4.459,1.379-6.904,0-9.942-8.088-18.031-18.028-18.031Zm151.902-188.246h-182.233c-29.839,0-54.027,24.189-54.027,54.027v182.234c0,29.838,24.188,54.027,54.027,54.027h182.233c29.838,0,54.027-24.189,54.027-54.027V89.971c0-29.838-24.189-54.027-54.027-54.027Zm-30.497,246.977c-22.442,0-40.7-18.258-40.7-40.7v-18.031h-27.408l-16.891,36.215-.039-.018c-6.689,13.338-20.456,22.535-36.366,22.535-22.442,0-40.7-18.258-40.7-40.7s18.258-40.7,40.7-40.7h18.028v-40.004h-18.028c-22.442,0-40.7-18.258-40.7-40.7s18.258-40.697,40.7-40.697,40.698,18.254,40.698,40.697v80.704h1.624l4.221-16.489,37.973-81.415c4.597-9.854,12.753-17.329,22.967-21.045,10.221-3.721,21.272-3.232,31.122,1.359,20.339,9.486,29.171,33.75,19.686,54.09-9.49,20.343-33.756,29.165-54.09,19.686l-16.34-7.621-23.991,51.437h57.535c22.442,0,40.698,18.258,40.698,40.7s-18.255,40.7-40.698,40.7Zm-121.404-180.132c-9.943,0-18.031,8.088-18.031,18.028s8.088,18.031,18.031,18.031h18.028v-18.031c0-9.94-8.088-18.028-18.028-18.028Zm121.404,121.401h-18.031v18.031c0,9.943,8.088,18.031,18.031,18.031s18.028-8.088,18.028-18.031-8.088-18.031-18.028-18.031Z"/><g><path d="m133.798,385.314h-18.624c-4.52,0-10.483,1.812-13.656,5.03l-27.887,28.288v-33.318h-21.728v89.463h21.728v-31.83l6.631-6.352,23.958,31.516c3.193,4.2,9.798,6.666,15.074,6.666h16.932l-41.772-51.777,39.345-37.686Z"/><rect x="219.457" y="406.913" width="20.451" height="67.864"/><path d="m313.452,406.913c-4.559,0-8.925,1.844-12.103,5.113l-18.418,18.936v-38.113c0-11.291-9.154-20.445-20.445-20.445h-.003v102.372h20.448v-20.654l5.568-5.219,14.926,19.315c3.197,4.137,8.131,6.559,13.359,6.559h15.865l-30.683-38.5,31.319-29.364h-19.833Z"/><path d="m394.63,406.913c-4.559,0-8.924,1.844-12.103,5.113l-18.421,18.939v-38.116c0-11.291-9.153-20.445-20.445-20.445v102.372h20.445v-20.654l5.567-5.219,14.926,19.315c3.197,4.137,8.13,6.559,13.359,6.559h15.868l-30.685-38.499,31.322-29.365h-19.833Z"/><path d="m506.71,372.404v102.372h20.448v-81.924c0-11.292-9.155-20.448-20.448-20.448Z"/><path d="m677.587,442.441c-1.705-1.873-4.007-3.492-6.902-4.854-2.895-1.362-6.348-2.598-10.351-3.706-3.241-.937-5.794-1.728-7.667-2.364-1.876-.64-3.241-1.217-4.092-1.728-.854-.511-1.514-1.148-1.982-1.916-.468-.765-.699-1.576-.699-2.427s.165-1.599.508-2.239c.34-.636.851-1.19,1.537-1.659.679-.468,1.51-.811,2.49-1.022.979-.214,2.107-.32,3.387-.32,1.705,0,3.581.34,5.626,1.022,2.044.683,4.023,1.596,5.942,2.747.02.012.039.023.058.035,3.188,1.924,7.256,1.472,9.737-1.304l6.116-6.846c-2.298-2.13-4.92-3.964-7.858-5.497-2.941-1.533-6.114-2.724-9.523-3.578-3.41-.851-6.988-1.279-10.737-1.279-3.495,0-6.879.491-10.16,1.471-3.281.983-6.176,2.411-8.689,4.284-2.516,1.873-4.518,4.089-6.008,6.645-1.49,2.556-2.236,5.411-2.236,8.564,0,2.727.468,5.174,1.405,7.347s2.256,4.155,3.964,5.945c1.873,1.873,4.28,3.512,7.222,4.92,2.938,1.405,6.41,2.618,10.414,3.64,2.813.768,5.111,1.451,6.902,2.044,1.791.6,3.07,1.111,3.835,1.537,1.533.937,2.302,2.259,2.302,3.96,0,.854-.171,1.599-.514,2.236-.34.64-.831,1.194-1.467,1.662-.64.472-1.428.831-2.364,1.088-.94.254-2.005.383-3.195.383-2.984,0-6.137-.617-9.461-1.853-1.624-.603-3.167-1.375-4.629-2.316-2.83-1.821-6.507-1.602-9.051.602l-7.662,6.634c2.981,3.578,7.007,6.434,12.079,8.564,5.068,2.127,10.925,3.195,17.573,3.195,5.451,0,10.308-.96,14.569-2.875,4.26-1.919,7.604-4.557,10.034-7.924,2.43-3.367,3.644-7.222,3.644-11.568,0-2.213-.343-4.28-1.022-6.199-.686-1.916-1.708-3.598-3.07-5.049Z"/><path d="m747.724,406.913c-4.559,0-8.925,1.844-12.104,5.113l-18.42,18.939v-38.116c0-11.291-9.154-20.445-20.445-20.445v102.372h20.445v-20.654l5.567-5.219,14.926,19.315c3.198,4.137,8.131,6.559,13.36,6.559h15.868l-30.685-38.499,31.325-29.365h-19.836Z"/><path d="m228.011,372.404c-6.552,0-11.888,5.337-11.888,11.898s5.336,11.898,11.888,11.898h11.898v-11.898c0-6.56-5.336-11.898-11.898-11.898Z"/><path d="m960.21,373.114c-6.562,0-11.898,5.336-11.898,11.898v11.898h11.898c6.551,0,11.888-5.336,11.888-11.898s-5.336-11.898-11.888-11.898Z"/><path d="m453.181,405.643c-20.96,0-34.54,13.578-34.54,34.567s13.58,34.567,34.54,34.567h34.567v-34.567c0-20.989-13.578-34.567-34.567-34.567Zm15.323,49.865h-15.323c-8.44,0-15.297-6.857-15.297-15.297s6.856-15.323,15.297-15.323,15.323,6.882,15.323,15.323v15.297Z"/><path d="m576.336,405.643c-20.96,0-34.541,13.578-34.541,34.567s13.581,34.567,34.541,34.567h34.567v-34.567c0-20.989-13.578-34.567-34.567-34.567Zm15.323,49.865h-15.323c-8.441,0-15.297-6.857-15.297-15.297s6.856-15.323,15.297-15.323,15.323,6.882,15.323,15.323v15.297Z"/><path d="m823.272,406.913v48.594h-11.946c-8.441,0-15.297-6.857-15.297-15.297l.372-33.297h-19.616v33.297c0,19.091,15.476,34.567,34.567,34.567h31.164v-48.619c0-10.628-8.616-19.245-19.244-19.245Z"/><path d="m870.696,450.978c-6.57,0-11.896,5.326-11.896,11.897s5.326,11.896,11.896,11.896,11.897-5.326,11.897-11.896-5.326-11.897-11.897-11.897Z"/><path d="m919.395,405.828c0-4.926,3.993-8.919,8.92-8.919h8.077v-16.961h-12.956c-13.589,0-24.605,11.016-24.605,24.605v4.276h-9.857v16.87h9.857v49.067h20.564v-49.067h26.581v49.077c11.295,0,20.451-9.156,20.451-20.451v-45.496h-47.032v-3.001Z"/><path d="m178.115,455.598h0l12.614-12.614,8.877-8.877c4.385-4.386,4.948-11.428,1.079-16.276-6.329-7.928-16.34-12.016-26.53-12.016-23.207,0-35.433,14.76-35.433,34.573,0,18.481,13.586,34.55,34.55,34.55h9.502c5.3,0,10.124-2.148,13.61-5.635,3.222-3.222,5.283-7.629,5.575-12.515h-25.034l1.191-1.19Zm-17.03-6.359c-1.84-1.964-2.857-5.245-3.048-7.345-.884-9.098,6.304-16.857,15.233-16.81,2.674,0,6.461.786,9.098,2.871l-21.284,21.284Z"/></g></svg>